<?xml version="1.0" standalone="no"?>
<!DOCTYPE svg PUBLIC "-//W3C//DTD SVG 20010904//EN"
 "http://www.w3.org/TR/2001/REC-SVG-20010904/DTD/svg10.dtd">
<svg version="1.0" xmlns="http://www.w3.org/2000/svg"
 width="500.000000pt" height="500.000000pt" viewBox="0 0 500.000000 500.000000"
 preserveAspectRatio="xMidYMid meet">
<metadata>
Created by potrace 1.14, written by Peter Selinger 2001-2017
</metadata>
<g transform="translate(0.000000,500.000000) scale(0.100000,-0.100000)"
fill="#000000" stroke="none">
<path d="M2393 4976 c-46 -15 -83 -39 -163 -107 -65 -55 -95 -71 -175 -94 -53
-15 -94 -33 -247 -106 -21 -10 -38 -16 -38 -13 0 2 39 43 87 89 98 96 178 144
212 126 61 -33 122 38 72 83 -28 25 -62 16 -89 -24 -13 -19 -32 -38 -43 -42
-38 -14 -114 -71 -184 -138 -38 -36 -91 -80 -116 -97 -81 -56 -262 -141 -313
-147 l-49 -7 34 28 c19 15 42 35 52 43 10 8 38 43 62 77 84 117 147 166 240
189 22 5 25 8 12 11 -10 3 -41 -4 -69 -14 -52 -18 -141 -94 -202 -173 l-27
-35 7 35 c9 47 72 144 106 164 15 10 28 21 28 27 0 14 -11 11 -48 -11 -39 -24
-85 -94 -108 -164 -34 -105 -49 -123 -152 -190 -103 -67 -193 -151 -213 -198
-8 -21 -18 -28 -38 -28 -30 0 -91 -34 -91 -52 0 -6 -3 -9 -6 -6 -3 4 7 32 23
65 19 39 59 90 123 155 160 164 178 187 173 209 -9 32 -47 53 -72 39 -29 -15
-38 -56 -16 -79 15 -18 15 -22 1 -49 -9 -17 -48 -60 -89 -96 -40 -36 -86 -86
-102 -111 -34 -55 -45 -46 -45 41 0 65 -11 84 -47 84 -28 0 -57 -41 -48 -69 5
-18 33 -34 60 -36 16 0 18 -119 3 -156 l-14 -32 -33 84 c-42 103 -49 162 -27
224 13 39 13 45 1 35 -43 -36 -44 -158 -1 -254 38 -85 31 -187 -14 -201 -11
-3 -36 -29 -57 -58 -51 -71 -124 -157 -133 -157 -4 0 -3 26 2 57 8 50 34 108
93 205 30 50 46 86 51 115 7 45 -12 42 -21 -3 -4 -24 -22 -53 -50 -81 -53 -55
-90 -121 -110 -198 -18 -71 -25 -79 -26 -34 -5 121 4 148 82 236 61 68 106
158 115 228 4 29 3 47 -2 42 -5 -5 -9 -12 -10 -15 -3 -39 -20 -95 -38 -130
-23 -44 -147 -194 -154 -187 -11 10 22 103 58 163 l40 67 -36 -40 c-64 -71
-89 -140 -93 -252 -2 -60 4 -88 33 -174 41 -117 40 -112 24 -107 -7 3 -18 -5
-23 -16 -8 -16 -18 -20 -41 -18 -19 2 -36 -3 -43 -12 -15 -18 -8 -61 14 -82
12 -13 10 -20 -11 -52 -15 -20 -30 -47 -35 -59 -14 -38 -29 -26 -31 25 -5 144
-4 192 7 240 17 72 0 53 -20 -23 -13 -49 -15 -92 -9 -240 4 -135 3 -188 -7
-210 -7 -16 -13 -48 -14 -70 -3 -50 -10 -88 -29 -145 l-15 -45 0 43 c-1 23 -1
44 -2 47 -14 66 -25 100 -50 151 -19 40 -29 78 -29 107 0 32 -5 47 -16 51 -31
12 -54 6 -70 -19 -25 -38 -12 -70 36 -89 28 -11 45 -27 59 -54 40 -78 68 -298
50 -385 -17 -81 -20 -89 -26 -83 -4 3 -9 63 -13 134 -5 98 -12 138 -29 177
-19 45 -61 90 -61 66 0 -6 5 -13 11 -17 27 -16 43 -83 49 -209 5 -99 12 -141
28 -177 18 -42 29 -93 47 -238 3 -25 10 -61 15 -80 9 -35 9 -35 -46 25 -78 85
-105 134 -111 204 -5 49 -2 62 14 78 19 19 33 45 39 71 3 16 -31 52 -49 52
-28 0 -50 -37 -43 -72 3 -18 10 -67 15 -109 8 -65 39 -152 60 -169 42 -35 155
-195 146 -209 -2 -5 2 -11 10 -15 8 -3 15 -10 15 -16 0 -6 -6 -8 -12 -4 -7 4
-4 -3 7 -16 11 -13 14 -20 7 -16 -11 7 -12 4 -3 -12 6 -12 18 -25 27 -30 9 -5
15 -12 14 -16 -4 -15 12 -66 21 -66 6 0 7 -5 3 -11 -9 -15 -58 34 -77 79 -9
20 -23 63 -32 94 -20 71 -49 114 -103 152 -51 36 -71 25 -22 -13 75 -56 89
-84 126 -235 l7 -29 -44 24 c-88 49 -140 120 -174 239 l-15 55 3 -55 c4 -68
42 -153 90 -200 19 -19 70 -53 113 -75 71 -37 154 -104 154 -124 0 -5 -17 -3
-37 4 -21 7 -61 15 -89 18 -29 3 -61 10 -72 16 -15 8 -102 103 -119 130 -1 1
-7 1 -13 -1 -17 -5 65 -113 106 -138 19 -12 52 -24 72 -26 109 -12 153 -32
184 -83 13 -20 23 -38 24 -41 0 -3 6 -18 12 -33 7 -16 12 -31 12 -33 0 -12
-46 11 -74 37 -33 30 -46 36 -46 19 0 -17 51 -61 90 -78 35 -15 35 -15 10 -22
-34 -10 -63 9 -138 88 -60 63 -62 65 -43 27 40 -81 94 -121 233 -171 26 -9 46
-20 43 -24 -6 -10 52 -100 65 -100 5 0 9 -4 7 -9 -1 -5 7 -17 18 -26 11 -9 13
-13 5 -9 -8 4 -3 -4 11 -19 14 -14 32 -41 41 -59 23 -48 88 -216 88 -227 0
-24 -89 33 -116 74 -8 13 -23 57 -33 98 -20 83 -53 147 -100 191 -42 40 -39
28 12 -47 29 -42 50 -87 61 -133 23 -93 52 -150 90 -174 29 -18 29 -20 8 -20
-66 0 -133 71 -162 172 -31 112 -75 191 -137 248 -78 71 -86 62 -14 -15 68
-74 102 -134 121 -215 17 -77 56 -145 100 -175 42 -29 62 -35 144 -40 41 -3
66 -11 80 -24 26 -24 105 -64 171 -86 97 -32 171 -70 250 -128 56 -41 85 -57
100 -53 12 3 67 -13 133 -40 166 -67 319 -109 512 -139 161 -24 458 -14 642
23 84 17 87 17 71 0 -24 -27 -99 -66 -162 -85 -42 -13 -90 -17 -191 -16 -118
1 -132 -1 -115 -13 10 -8 35 -15 54 -15 20 -1 50 -3 66 -4 64 -6 198 15 282
44 129 45 173 52 328 55 153 3 228 22 283 72 26 24 25 23 -39 -5 -99 -43 -109
-45 -324 -51 -49 -1 -99 -2 -109 -1 -20 1 -20 1 0 16 60 46 246 96 359 96 28
1 57 7 65 14 21 18 162 51 300 70 149 20 178 29 229 66 55 39 46 50 -13 15
-46 -27 -155 -60 -165 -50 -3 3 6 16 20 27 15 12 51 44 82 70 30 26 90 68 133
92 80 46 75 66 -6 24 -23 -12 -43 -20 -45 -17 -9 9 52 71 85 87 40 18 52 58
25 85 -15 14 -19 14 -46 1 -23 -12 -29 -22 -29 -47 0 -50 -120 -190 -243 -282
-66 -49 -78 -45 -29 8 22 24 51 64 63 88 40 79 102 173 135 203 17 17 62 41
98 54 86 30 150 78 205 153 24 33 54 65 67 70 30 14 38 38 20 56 -20 20 -42 9
-50 -24 -8 -32 -81 -129 -129 -171 -19 -17 -55 -39 -79 -49 -23 -11 -67 -31
-95 -45 -50 -24 -76 -18 -34 8 11 7 22 26 26 42 5 25 20 38 78 70 75 42 157
105 157 123 0 5 -19 -5 -42 -23 -77 -59 -73 -57 -58 -29 27 51 63 90 117 126
30 20 52 38 50 41 -11 10 -80 -29 -125 -71 -48 -45 -71 -59 -55 -33 4 6 8 22
9 34 0 12 7 30 15 39 33 40 135 86 218 98 32 4 81 -10 81 -24 0 -4 11 -12 24
-18 49 -22 89 43 50 82 -19 20 -43 20 -69 2 -11 -7 -44 -16 -74 -20 -29 -4
-77 -16 -105 -27 -65 -24 -74 -24 -50 2 56 62 159 98 304 105 163 8 211 27
263 104 30 44 18 41 -32 -8 -29 -28 -65 -53 -88 -60 -47 -14 -109 -16 -117 -4
-3 5 28 32 68 60 89 62 141 119 171 186 29 62 44 166 24 166 -7 0 -10 -3 -7
-6 9 -8 -20 -120 -41 -162 -25 -47 -103 -129 -164 -171 -79 -54 -217 -108
-217 -84 0 4 31 30 69 56 90 63 162 133 207 202 23 33 47 58 61 61 29 8 45 41
31 67 -7 13 -18 17 -41 15 -29 -3 -32 -6 -38 -45 -4 -34 -16 -53 -57 -95 -55
-55 -64 -50 -32 19 33 74 81 134 203 257 65 66 123 129 129 140 6 12 -38 -26
-96 -84 -58 -57 -106 -101 -106 -97 0 4 10 44 21 89 23 90 21 157 -6 205 -16
27 -16 27 -11 3 20 -100 16 -163 -13 -235 -41 -99 -78 -165 -93 -165 -17 0 -8
131 12 169 11 22 22 58 26 81 4 23 13 47 20 55 39 38 -10 111 -55 83 -25 -15
-28 -60 -6 -78 22 -18 19 -92 -4 -121 l-18 -23 -13 53 c-21 90 -16 143 18 193
16 23 44 57 62 73 17 17 41 48 53 70 41 78 20 217 -39 266 -12 9 -8 -2 10 -34
51 -86 42 -193 -21 -262 -10 -11 -32 -37 -50 -57 -57 -67 -54 -45 44 284 3 10
-3 21 -16 27 -17 9 -24 8 -42 -10 l-21 -21 24 -22 25 -21 -17 -50 -18 -50 -11
29 c-26 65 -25 114 4 216 29 104 29 174 -1 204 -8 8 -14 17 -14 21 0 5 -65
103 -76 114 -2 2 -4 0 -4 -5 0 -6 23 -45 50 -89 66 -104 66 -141 3 -295 -10
-24 -12 -22 -26 30 -9 30 -18 66 -20 80 -3 14 -8 44 -12 68 -8 52 -22 46 -31
-14 -8 -54 -14 -51 -20 9 -4 48 -78 229 -147 362 -23 44 -44 82 -47 85 -8 8
-28 41 -54 90 -42 80 -146 212 -232 297 -74 72 -84 86 -84 118 0 46 -24 102
-58 139 -15 15 -65 46 -112 68 -84 39 -194 107 -186 115 19 19 210 -2 258 -28
11 -6 18 -21 18 -39 0 -42 65 -76 89 -46 34 41 10 96 -43 96 -17 0 -56 9 -86
21 -37 14 -86 22 -156 25 -67 3 -123 12 -161 25 -102 36 -185 46 -365 47 -174
0 -237 9 -323 47 -16 8 -72 29 -122 47 -94 33 -116 48 -65 42 64 -7 101 -18
186 -57 79 -35 102 -41 173 -43 52 -2 100 2 130 12 160 49 262 53 364 14 29
-11 55 -18 57 -16 2 2 -18 17 -44 32 -72 42 -177 45 -320 8 -72 -18 -135 -27
-184 -27 -68 0 -84 4 -175 46 -55 25 -118 48 -139 51 -53 9 -55 13 -11 25 50
14 120 7 245 -23 121 -30 204 -33 280 -10 31 9 71 14 93 11 30 -4 43 -1 58 14
26 26 24 51 -6 83 -42 45 -99 26 -97 -33 1 -28 -4 -35 -36 -48 -56 -24 -189
-21 -292 7 -54 15 -116 23 -170 24 -78 1 -90 -2 -149 -32 -41 -22 -75 -32 -95
-30 l-31 3 65 53 c97 78 147 99 245 101 30 1 36 4 25 11 -21 13 -87 11 -137
-4z m-265 -38 c20 -20 14 -47 -12 -54 -14 -3 -30 -3 -35 1 -24 14 -4 65 24 65
6 0 16 -5 23 -12z m935 -48 c6 -25 -3 -40 -27 -40 -28 0 -46 18 -46 46 0 39
63 34 73 -6z m-1839 -256 c9 -24 7 -31 -9 -38 -22 -8 -49 23 -34 40 15 19 35
18 43 -2z m1983 -59 c31 -14 54 -28 51 -30 -6 -6 -178 54 -178 62 0 11 73 -7
127 -32z m466 -74 c6 -23 0 -31 -23 -31 -26 0 -42 24 -28 38 18 18 45 14 51
-7z m-157 -83 c104 -57 124 -79 124 -136 0 -36 -15 -43 -55 -28 -78 29 -104
55 -125 123 -11 36 -20 67 -20 69 0 9 20 2 76 -28z m-2611 -8 c0 -16 -6 -26
-19 -28 -25 -5 -37 9 -29 36 8 33 48 26 48 -8z m-379 -775 c-7 -20 -25 -16
-40 8 -8 13 -7 20 4 27 20 12 45 -12 36 -35z m-311 -261 c0 -22 -5 -29 -20
-29 -24 0 -34 43 -13 56 21 14 33 4 33 -27z m4084 -329 c0 -5 -4 -3 -9 5 -5 8
-9 22 -9 30 0 16 17 -16 18 -35z m39 -145 c-2 -9 -11 -2 -24 20 -15 26 -19 46
-16 75 l5 40 19 -60 c10 -33 17 -66 16 -75z m-4150 -74 c4 -18 -14 -46 -29
-46 -16 0 -23 52 -8 61 19 12 33 6 37 -15z m4273 -152 c10 -13 10 -17 -2 -25
-20 -12 -26 -11 -33 7 -12 32 12 45 35 18z m-107 -224 c7 -36 11 -69 8 -74 -6
-11 -70 91 -77 126 -5 19 -1 33 9 44 9 8 16 25 17 37 1 28 24 -45 43 -133z
m-35 -72 c27 -46 19 -49 -20 -8 -30 31 -34 42 -22 54 8 8 13 2 42 -46z m6 -78
c32 -46 30 -66 -9 -152 -28 -62 -104 -151 -148 -174 l-28 -15 34 45 c19 25 51
73 72 106 20 32 45 62 55 65 40 13 10 83 -31 72 -21 -5 -22 -4 -16 31 4 20 9
46 10 57 2 11 4 22 5 24 2 7 30 -21 56 -59z m214 1 c18 -11 5 -31 -20 -31 -18
0 -26 20 -12 33 8 9 15 9 32 -2z m-230 -475 c14 -17 4 -46 -15 -46 -18 0 -28
24 -20 45 7 19 20 19 35 1z m-3330 -556 c40 -36 77 -66 82 -68 5 -2 9 -8 9
-13 0 -11 -76 18 -112 43 -31 22 -62 63 -73 97 -9 31 3 23 94 -59z m2934 64
c9 -9 -4 -34 -18 -34 -14 0 -27 25 -18 34 4 3 12 6 18 6 6 0 14 -3 18 -6z
m-655 -391 c-10 -2 -26 -2 -35 0 -10 3 -2 5 17 5 19 0 27 -2 18 -5z"/>
<path d="M3530 925 c-66 -17 -117 -25 -188 -29 -76 -5 -78 -18 -2 -15 74 2
211 26 255 45 40 18 8 17 -65 -1z"/>
</g>
</svg>
